# xmcd CD database file
#
# Track frame offsets:
#	150
#	13851
#	28012
#	41915
#	55048
#	68551
#	80531
#	94560
#	107174
#	118378
#	132151
#	144864
#	157666
#	172100
#
# Disc length: 2467 seconds
#
# Revision: 0
# Processed by: cddbd v1.4PL0 Copyright (c) Steve Scherf et al.
# Submitted via: CDex 1.40Release
#
DISCID=b509a10e
DTITLE=Dave Edwards - and His Alabama Boys
DYEAR=1900
DGENRE=Country
TTITLE0=Jig Time (1937)
TTITLE1=Minnie The Moocher (1937)
TTITLE2=Sigh And Cry Blues (1937)
TTITLE3=You're No Good Anymore (1937)
TTITLE4=Smiles (1937)
TTITLE5=Down In Arkansas (1937)
TTITLE6=Sailing On The Robert E. Lee (1937)
TTITLE7=Down In The Jungle Town (1937)
TTITLE8=Hula Lou (1937)
TTITLE9=Done Sold My Soul To The Devil (1937)
TTITLE10=Blue Man's Blues (1937)
TTITLE11=Baby You're As Sweet As Honey To Me (1937)
TTITLE12=Missouri Waltz (1937)
TTITLE13=Oh By Jingo! (1937)
EXTD=ID3G: 2
EXTT0=
EXTT1=
EXTT2=
EXTT3=
EXTT4=
EXTT5=
EXTT6=
EXTT7=
EXTT8=
EXTT9=
EXTT10=
EXTT11=
EXTT12=
EXTT13=
PLAYORDER=
